<?xml version="1.0" encoding="utf-8"?>
<!-- Generator: Adobe Illustrator 18.0.0, SVG Export Plug-In . SVG Version: 6.00 Build 0)  -->
<!DOCTYPE svg PUBLIC "-//W3C//DTD SVG 1.1//EN" "http://www.w3.org/Graphics/SVG/1.1/DTD/svg11.dtd">
<svg version="1.1" id="Слой_1" xmlns="http://www.w3.org/2000/svg" xmlns:xlink="http://www.w3.org/1999/xlink" x="0px" y="0px"
	 viewBox="0 0 320 70" enable-background="new 0 0 320 70" xml:space="preserve">
<g>
	<path fill="#22292D" d="M18.7,36.3h-2v11.1H9V18.6h12.8c5.1,0,9,3.2,9,8.2c0,3.7-2.3,7.2-5.3,8.2l6.6,12.4h-8.4L18.7,36.3z
		 M16.6,24v6.7h2.7c2,0,3.9-0.7,3.9-3.4c0-2-1.6-3.3-3.9-3.3H16.6z"/>
	<path fill="#22292D" d="M35.2,35.7V18.6h7.6v15.8c0,4.6,2.2,7.7,5.9,7.7c3.7,0,5.9-3.1,5.9-7.7V18.6h7.6v17c0,8-6.2,12.2-13.5,12.2
		C41.4,47.9,35.2,43.6,35.2,35.7z"/>
	<path fill="#22292D" d="M65.9,46.6v-6.5c2,1.1,4.5,2,7.6,2c2.4,0,3.8-0.5,3.8-2.8c0-2.5-2.7-3.2-4.6-3.9c-3.3-1.3-7.2-2.7-7.2-8.5
		c0-7,5.8-8.8,11.5-8.8c2.7,0,4.6,0.4,6.6,1.1v6c-2-0.9-3.8-1.4-6-1.4c-1.8,0-4.2,0.1-4.2,2.7c0,2.2,2.8,2.9,4.4,3.6
		c3.3,1.3,7.3,2.8,7.3,8.4c0,7.4-5.3,9.5-11.5,9.5C70.9,47.9,68.5,47.5,65.9,46.6z"/>
	<path fill="#22292D" d="M108,35.2H96.2v12.2h-7.6V18.6h7.6v11H108v-11h7.6v28.8H108V35.2z"/>
	<path fill="#22292D" d="M217.2,26.2h-0.1l-7.4,8.3l-7.4-8.3h-0.1v21.2h-7.6V18.6h8.7l6.4,7.2l6.4-7.2h8.7v28.8h-7.6V26.2z"/>
	<path fill="#22292D" d="M228.3,33c0-9.1,6.5-14.9,15.5-14.9c9.3,0,15.6,5.9,15.6,14.9c0,8.8-6.4,14.9-15.6,14.9
		C235.1,47.9,228.3,42,228.3,33z M236.2,33c0,4.8,2.9,9.1,7.6,9.1c4.8,0,7.7-4.4,7.7-9.1c0-5-2.9-9.1-7.7-9.1
		C238.9,23.9,236.2,28,236.2,33z"/>
	<path fill="#22292D" d="M273,36.3h-2v11.1h-7.6V18.6h12.8c5.1,0,9,3.2,9,8.2c0,3.7-2.3,7.2-5.3,8.2l6.6,12.4h-8.4L273,36.3z
		 M270.9,24v6.7h2.7c2,0,3.9-0.7,3.9-3.4c0-2-1.6-3.3-3.9-3.3H270.9z"/>
	<path fill="#22292D" d="M289.5,18.6h19v5.5h-11.4V30h10.3v5.5h-10.3v6.3H309v5.5h-19.5V18.6z"/>
	<g>
		<rect x="133.3" y="9" fill="#C1272D" width="48" height="48"/>
		<g>
			<path fill="#FFFFFF" d="M169.9,56.5h-11.5v-9H138V37l18.4-27.5h13.5v29.4h6.7v8.6h-6.7V56.5z M158.9,19.3l-12.5,19.6h12.7V19.3
				H158.9z"/>
		</g>
	</g>
</g>
</svg>
